<svg width="121" height="30" viewBox="0 0 121 30" fill="none" xmlns="http://www.w3.org/2000/svg">
<path d="M27.9051 22L33.5371 6.6H36.7051L42.3371 22H39.3451L38.1131 18.436H32.1071L30.8531 22H27.9051ZM32.8771 16.236H37.3431L35.0991 9.834L32.8771 16.236ZM47.6649 18.744C47.1369 18.744 46.6455 18.6853 46.1909 18.568L45.3769 19.382C45.6262 19.514 45.9635 19.624 46.3889 19.712C46.8142 19.8 47.5035 19.888 48.4569 19.976C49.9089 20.108 50.9649 20.4527 51.6249 21.01C52.2849 21.5673 52.6149 22.3373 52.6149 23.32C52.6149 23.9653 52.4389 24.574 52.0869 25.146C51.7349 25.7327 51.1922 26.202 50.4589 26.554C49.7255 26.9207 48.7869 27.104 47.6429 27.104C46.0882 27.104 44.8342 26.8107 43.8809 26.224C42.9275 25.652 42.4509 24.7867 42.4509 23.628C42.4509 22.6453 42.9275 21.7947 43.8809 21.076C43.5875 20.944 43.3309 20.8047 43.1109 20.658C42.9055 20.5113 42.7222 20.3573 42.5609 20.196V19.69L44.4749 17.666C43.6242 16.918 43.1989 15.9573 43.1989 14.784C43.1989 14.0507 43.3749 13.3833 43.7269 12.782C44.0935 12.1807 44.6069 11.704 45.2669 11.352C45.9269 11 46.7262 10.824 47.6649 10.824C48.2809 10.824 48.8529 10.912 49.3809 11.088H53.5169V12.804L51.6469 12.936C51.9402 13.4933 52.0869 14.1093 52.0869 14.784C52.0869 15.5173 51.9109 16.1847 51.5589 16.786C51.2069 17.3873 50.6935 17.864 50.0189 18.216C49.3589 18.568 48.5742 18.744 47.6649 18.744ZM47.6649 16.588C48.2369 16.588 48.7062 16.434 49.0729 16.126C49.4542 15.818 49.6449 15.378 49.6449 14.806C49.6449 14.234 49.4542 13.794 49.0729 13.486C48.7062 13.178 48.2369 13.024 47.6649 13.024C47.0635 13.024 46.5795 13.178 46.2129 13.486C45.8462 13.794 45.6629 14.234 45.6629 14.806C45.6629 15.378 45.8462 15.818 46.2129 16.126C46.5795 16.434 47.0635 16.588 47.6649 16.588ZM45.0249 23.342C45.0249 23.8847 45.2742 24.288 45.7729 24.552C46.2862 24.8307 46.9095 24.97 47.6429 24.97C48.3469 24.97 48.9189 24.8233 49.3589 24.53C49.7989 24.2513 50.0189 23.87 50.0189 23.386C50.0189 22.99 49.8722 22.66 49.5789 22.396C49.3002 22.132 48.7355 21.9707 47.8849 21.912C47.2835 21.868 46.7262 21.802 46.2129 21.714C45.7875 21.9487 45.4795 22.2053 45.2889 22.484C45.1129 22.7627 45.0249 23.0487 45.0249 23.342ZM54.3603 22V11.088H56.8683L57.1323 13.134C57.5283 12.43 58.0636 11.8727 58.7383 11.462C59.4276 11.0367 60.2343 10.824 61.1583 10.824V13.794H60.3663C59.7503 13.794 59.2003 13.8893 58.7163 14.08C58.2323 14.2707 57.8509 14.6007 57.5723 15.07C57.3083 15.5393 57.1763 16.192 57.1763 17.028V22H54.3603ZM63.3909 9.394C62.8776 9.394 62.4523 9.24 62.1149 8.932C61.7923 8.624 61.6309 8.23533 61.6309 7.766C61.6309 7.29667 61.7923 6.91533 62.1149 6.622C62.4523 6.314 62.8776 6.16 63.3909 6.16C63.9043 6.16 64.3223 6.314 64.6449 6.622C64.9823 6.91533 65.1509 7.29667 65.1509 7.766C65.1509 8.23533 64.9823 8.624 64.6449 8.932C64.3223 9.24 63.9043 9.394 63.3909 9.394ZM61.9829 22V11.088H64.7989V22H61.9829ZM73.5682 22.264C72.0135 22.264 70.6788 21.934 69.5642 21.274C68.4495 20.5993 67.5915 19.668 66.9902 18.48C66.3888 17.2773 66.0882 15.8913 66.0882 14.322C66.0882 12.7527 66.3888 11.3667 66.9902 10.164C67.5915 8.96133 68.4495 8.02267 69.5642 7.348C70.6788 6.67333 72.0135 6.336 73.5682 6.336C75.4162 6.336 76.9268 6.798 78.1002 7.722C79.2882 8.63133 80.0288 9.91467 80.3222 11.572H77.2202C77.0295 10.736 76.6188 10.0833 75.9882 9.614C75.3722 9.13 74.5508 8.888 73.5242 8.888C72.1015 8.888 70.9868 9.372 70.1802 10.34C69.3735 11.308 68.9702 12.6353 68.9702 14.322C68.9702 16.0087 69.3735 17.336 70.1802 18.304C70.9868 19.2573 72.1015 19.734 73.5242 19.734C74.5508 19.734 75.3722 19.514 75.9882 19.074C76.6188 18.6193 77.0295 17.996 77.2202 17.204H80.3222C80.0288 18.788 79.2882 20.0273 78.1002 20.922C76.9268 21.8167 75.4162 22.264 73.5682 22.264ZM81.5389 22V6.16H84.3549V12.76C84.7215 12.1587 85.2129 11.6893 85.8289 11.352C86.4595 11 87.1782 10.824 87.9849 10.824C89.3342 10.824 90.3755 11.2493 91.1089 12.1C91.8569 12.9507 92.2309 14.1973 92.2309 15.84V22H89.4369V16.104C89.4369 15.1653 89.2462 14.4467 88.8649 13.948C88.4982 13.4493 87.9115 13.2 87.1049 13.2C86.3129 13.2 85.6529 13.4787 85.1249 14.036C84.6115 14.5933 84.3549 15.3707 84.3549 16.368V22H81.5389ZM97.4756 22.264C96.537 22.264 95.767 22.1173 95.1656 21.824C94.5643 21.516 94.117 21.1127 93.8236 20.614C93.5303 20.1153 93.3836 19.5653 93.3836 18.964C93.3836 17.952 93.7796 17.1307 94.5716 16.5C95.3636 15.8693 96.5516 15.554 98.1356 15.554H100.908V15.29C100.908 14.542 100.695 13.992 100.27 13.64C99.8443 13.288 99.3163 13.112 98.6856 13.112C98.1136 13.112 97.615 13.2513 97.1896 13.53C96.7643 13.794 96.5003 14.19 96.3976 14.718H93.6476C93.721 13.926 93.985 13.2367 94.4396 12.65C94.909 12.0633 95.5103 11.616 96.2436 11.308C96.977 10.9853 97.7983 10.824 98.7076 10.824C100.262 10.824 101.487 11.2127 102.382 11.99C103.276 12.7673 103.724 13.8673 103.724 15.29V22H101.326L101.062 20.24C100.739 20.8267 100.284 21.3107 99.6976 21.692C99.1256 22.0733 98.385 22.264 97.4756 22.264ZM98.1136 20.064C98.9203 20.064 99.5436 19.8 99.9836 19.272C100.438 18.744 100.724 18.0913 100.842 17.314H98.4436C97.6956 17.314 97.1603 17.4533 96.8376 17.732C96.515 17.996 96.3536 18.326 96.3536 18.722C96.3536 19.1473 96.515 19.4773 96.8376 19.712C97.1603 19.9467 97.5856 20.064 98.1136 20.064ZM106.719 9.394C106.206 9.394 105.78 9.24 105.443 8.932C105.12 8.624 104.959 8.23533 104.959 7.766C104.959 7.29667 105.12 6.91533 105.443 6.622C105.78 6.314 106.206 6.16 106.719 6.16C107.232 6.16 107.65 6.314 107.973 6.622C108.31 6.91533 108.479 7.29667 108.479 7.766C108.479 8.23533 108.31 8.624 107.973 8.932C107.65 9.24 107.232 9.394 106.719 9.394ZM105.311 22V11.088H108.127V22H105.311ZM109.856 22V11.088H112.342L112.562 12.936C112.899 12.2907 113.383 11.7773 114.014 11.396C114.659 11.0147 115.415 10.824 116.28 10.824C117.629 10.824 118.678 11.2493 119.426 12.1C120.174 12.9507 120.548 14.1973 120.548 15.84V22H117.732V16.104C117.732 15.1653 117.541 14.4467 117.16 13.948C116.779 13.4493 116.185 13.2 115.378 13.2C114.586 13.2 113.933 13.4787 113.42 14.036C112.921 14.5933 112.672 15.3707 112.672 16.368V22H109.856Z" fill="#00713B"/>
<path d="M10.7102 13.3553L12.3087 12.809L12.5811 13.6097C14.3066 18.6625 16.7136 22.454 20.2404 25.602C21.577 24.3979 22.4942 22.7799 22.8689 20.9266C23.3661 18.4676 22.885 15.842 21.4787 13.3346C20.2416 11.1286 18.6954 9.94785 17.0582 8.69756C16.1599 8.01148 15.2291 7.30105 14.2944 6.37543C12.5788 4.67593 11.4095 1.70215 11.3976 1.6726L10.7639 0.0385635L9.88024 1.55247C9.81243 1.66947 8.19947 4.45945 6.8994 8.79927C5.52481 13.3863 5.40025 17.3115 6.53062 20.4629C7.44843 23.019 9.29031 25.1393 11.5915 26.3554C12.0253 26.585 12.4757 26.7817 12.939 26.9439C15.0418 27.6779 17.1783 27.5563 18.8434 26.6165C15.2408 23.3228 12.7648 19.3713 10.9819 14.1538L10.7102 13.3553Z" fill="#00713B"/>
<path d="M22.2874 27.2653C21.5659 26.7294 20.8854 26.1757 20.2417 25.6009C19.8696 25.9359 19.4682 26.2369 19.0422 26.5001C18.9769 26.5402 18.9104 26.5791 18.8439 26.6168C19.6213 27.326 20.4345 27.9949 21.2803 28.6208L21.9584 29.1249L22.9653 27.7686L22.2874 27.2653Z" fill="#00713B"/>
</svg>
